<?xml version="1.0" encoding="UTF-8"?>
<svg id="Layer_2" data-name="Layer 2" xmlns="http://www.w3.org/2000/svg" viewBox="0 0 500 500">
  <defs>
    <style>
      .cls-1 {
        fill: #fff;
      }

      .cls-2 {
        fill: #f25c05;
      }

      .cls-3 {
        fill: #f3cb04;
      }
    </style>
  </defs>
  <g id="Layer_1-2" data-name="Layer 1">
    <g>
      <path class="cls-3" d="M440.92,440.92c-43.15,44.58-117.03,58.34-190.92,59.08-73.89-.74-147.77-14.51-190.92-59.08C14.51,397.77.74,323.89,0,250,.74,176.11,14.51,102.23,59.08,59.08,102.23,14.51,176.11.74,250,0c73.89.74,147.77,14.51,190.92,59.08,44.58,43.15,58.34,117.03,59.08,190.92-.74,73.89-14.51,147.77-59.08,190.92Z"/>
      <circle class="cls-1" cx="381.22" cy="106.79" r="46.55"/>
      <g>
        <path d="M79.53,250.38v25.07h-19.62v-75.65h31.3c6.58,0,13.38,1.25,19.17,6.81,5.9,5.67,7.03,12.02,7.03,18.37,0,6.01-.79,13.04-6.69,18.83-5.9,5.78-12.93,6.58-18.83,6.58h-12.36ZM79.53,234.5h6.58c2.04,0,5.9-.23,8.28-2.38,2.38-2.04,2.5-5.1,2.5-6.92,0-2.04-.23-4.76-2.27-6.81-2.27-2.38-5.9-2.72-8.39-2.72h-6.69v18.83Z"/>
        <path d="M170.84,216.46h-23.37v12.59h22.12v16.67h-22.12v13.04h23.37v16.67h-42.99v-75.65h42.99v16.67Z"/>
        <path d="M251.48,265.92c-7.71,7.37-18.6,11.23-29.83,11.23s-22.12-3.86-29.83-11.23c-8.05-7.71-11.91-18.26-11.91-28.24s3.86-20.76,11.91-28.36c7.71-7.37,18.6-11.23,29.83-11.23s22.12,3.86,29.83,11.23c8.05,7.6,11.91,18.26,11.91,28.36s-3.86,20.53-11.91,28.24ZM206.34,223.16c-4.08,3.97-6.01,9.53-6.01,14.86,0,6.69,3.18,11.34,6.01,14.06,3.63,3.52,8.73,6.01,15.31,6.01s11.68-2.38,15.2-5.9c3.52-3.52,6.12-8.73,6.12-14.52s-2.61-11.12-6.12-14.52c-4.2-3.97-9.98-6.01-15.2-6.01s-11.23,1.93-15.31,6.01Z"/>
        <path d="M295.48,250.38v25.07h-19.62v-75.65h31.3c6.58,0,13.38,1.25,19.17,6.81,5.9,5.67,7.03,12.02,7.03,18.37,0,6.01-.79,13.04-6.69,18.83-5.9,5.78-12.93,6.58-18.83,6.58h-12.36ZM295.48,234.5h6.58c2.04,0,5.9-.23,8.28-2.38,2.38-2.04,2.5-5.1,2.5-6.92,0-2.04-.23-4.76-2.27-6.81-2.27-2.38-5.9-2.72-8.39-2.72h-6.69v18.83Z"/>
        <path d="M363.42,199.79v58.98h23.59v16.67h-43.21v-75.65h19.62Z"/>
        <path d="M440.1,216.46h-23.37v12.59h22.12v16.67h-22.12v13.04h23.37v16.67h-42.99v-75.65h42.99v16.67Z"/>
        <path d="M80.43,287.68l13.16,48.89,15.99-48.89h15.65l14.86,48.89,14.29-48.89h20.53l-24.16,75.65h-20.08l-13.72-43.78-14.52,43.78h-19.96l-22.57-75.65h20.53Z"/>
        <path d="M192.66,309.68c-3.98,0-7.53-1.87-9.81-4.77v58.42h19.62v-58.42c-2.28,2.91-5.83,4.77-9.81,4.77Z"/>
        <path d="M248.98,287.68c5.67,0,12.93.91,18.49,6.69,4.31,4.42,6.47,11,6.47,17.01,0,6.47-2.27,12.14-6.01,15.77-2.95,2.84-6.92,4.54-10.43,5.22l23.71,30.96h-24.39l-18.83-29.04v29.04h-19.62v-75.65h30.62ZM237.97,321.59h3.74c2.95,0,7.15-.79,9.53-3.06,1.47-1.47,2.5-3.97,2.5-6.35s-.91-4.76-2.61-6.35c-1.81-1.81-5.1-2.95-9.41-2.95h-3.74v18.71Z"/>
        <path d="M332.45,304.35h-23.37v12.59h22.12v16.67h-22.12v13.04h23.37v16.67h-42.99v-75.65h42.99v16.67Z"/>
        <g>
          <path d="M100.89,158.22h30.77v-21.56h3.35v50.8h-3.35v-26.2h-30.77v26.2h-3.35v-50.8h3.35v21.56Z"/>
          <path d="M173.1,139.72h-21.02v18.43h20.57v3.05h-20.57v23.23h21.02v3.05h-24.37v-50.8h24.37v3.05Z"/>
          <path d="M76.44,139.72v47.76h-3.35v-47.76h-13.18v-3.05h29.71v3.05h-13.18Z"/>
        </g>
        <circle class="cls-2" cx="192.66" cy="297.7" r="9.81"/>
        <g>
          <polygon class="cls-3" points="388.26 287.71 365.71 363.33 385.69 363.33 408.27 287.68 388.26 287.71"/>
          <polygon class="cls-2" points="408.09 287.71 385.54 363.33 405.53 363.33 428.11 287.68 408.09 287.71"/>
          <polygon points="368.47 287.71 345.93 363.33 365.91 363.33 388.49 287.68 368.47 287.71"/>
        </g>
      </g>
    </g>
  </g>
</svg>