<svg width="80" height="35" viewBox="0 0 80 35" fill="none" xmlns="http://www.w3.org/2000/svg">
<path d="M2.02558 9.05844V10.9007H0.584473V5.3421H2.88515C3.36905 5.3421 3.86782 5.43337 4.29442 5.84299C4.72738 6.25898 4.81228 6.72591 4.81228 7.19284C4.81228 7.6343 4.75285 8.15217 4.31989 8.57665C3.88692 9.00113 3.36905 9.06056 2.93608 9.06056H2.0277L2.02558 9.05844ZM2.02558 7.89111H2.50948C2.66017 7.89111 2.94245 7.87414 3.11861 7.71708C3.29477 7.56639 3.30114 7.34141 3.30114 7.2077C3.30114 7.05701 3.28416 6.8575 3.13347 6.70681C2.9658 6.53277 2.7005 6.5073 2.51585 6.5073H2.02346V7.89111H2.02558Z" fill="black"/>
<path d="M8.736 6.5646H7.01899V7.48997H8.64474V8.7146H7.01899V9.67392H8.736V10.8986H5.57788V5.33997H8.736V6.5646Z" fill="black"/>
<path d="M14.6587 10.2003C14.092 10.7415 13.2919 11.0259 12.4663 11.0259C11.6407 11.0259 10.8405 10.7415 10.2738 10.2003C9.68169 9.63364 9.39941 8.85896 9.39941 8.1246C9.39941 7.39025 9.68169 6.59859 10.2738 6.0404C10.8405 5.49919 11.6407 5.21478 12.4663 5.21478C13.2919 5.21478 14.092 5.49919 14.6587 6.0404C15.2509 6.59859 15.5331 7.38176 15.5331 8.1246C15.5331 8.86745 15.2509 9.63364 14.6587 10.2003ZM11.3414 7.05703C11.0421 7.3478 10.8999 7.75743 10.8999 8.14795C10.8999 8.64035 11.1334 8.98206 11.3414 9.18156C11.6088 9.4405 11.9824 9.62302 12.4663 9.62302C12.9502 9.62302 13.3237 9.44899 13.5827 9.19005C13.8416 8.93112 14.0326 8.54909 14.0326 8.12248C14.0326 7.69588 13.8416 7.30535 13.5827 7.05491C13.2749 6.76414 12.8483 6.61345 12.4663 6.61345C12.0842 6.61345 11.6407 6.75565 11.3414 7.05491V7.05703Z" fill="black"/>
<path d="M17.8951 9.05844V10.9007H16.454V5.3421H18.7547C19.2386 5.3421 19.7373 5.43337 20.1639 5.84299C20.5969 6.25898 20.6818 6.72591 20.6818 7.19284C20.6818 7.6343 20.6224 8.15217 20.1894 8.57665C19.7564 9.00113 19.2386 9.06056 18.8056 9.06056H17.8972L17.8951 9.05844ZM17.8951 7.89111H18.379C18.5297 7.89111 18.812 7.87414 18.9881 7.71708C19.1643 7.56639 19.1706 7.34141 19.1706 7.2077C19.1706 7.05701 19.1537 6.8575 19.003 6.70681C18.8353 6.53277 18.57 6.5073 18.3854 6.5073H17.893V7.89111H17.8951Z" fill="black"/>
<path d="M22.8853 5.33997V9.67392H24.6193V10.8986H21.4442V5.33997H22.8853Z" fill="black"/>
<path d="M28.5193 6.5646H26.8023V7.48997H28.4281V8.7146H26.8023V9.67392H28.5193V10.8986H25.3612V5.33997H28.5193V6.5646Z" fill="black"/>
<path d="M0 12.4013H6.95508L8.97772 21.1584C9.11568 21.7951 9.28335 22.349 9.28335 23.4315H9.4489C9.50408 22.2684 9.66962 21.2984 9.92007 20.3285L11.9427 12.4034H17.098L19.231 20.8273C19.3966 21.4916 19.5642 22.712 19.6194 23.4315H19.7574C19.785 22.2408 19.9505 21.4364 20.1733 20.4665L22.0856 12.4013H29.0683L22.5568 30.8854H16.7096L14.9629 23.3466C14.7973 22.5974 14.6594 21.7399 14.6021 20.8251H14.3813C14.3537 21.4343 14.2434 22.765 14.1033 23.3466L12.191 30.8854H6.48179L0 12.4013Z" fill="black"/>
<path d="M30.9222 30.8854V12.4013H37.629V30.8854H30.9222Z" fill="black"/>
<path d="M34.2768 10.9007C35.8123 10.9007 37.0571 9.65587 37.0571 8.12032C37.0571 6.58477 35.8123 5.33997 34.2768 5.33997C32.7413 5.33997 31.4965 6.58477 31.4965 8.12032C31.4965 9.65587 32.7413 10.9007 34.2768 10.9007Z" fill="#F25C05"/>
<path d="M41.3435 30.8854V12.4013H49.6845C51.6244 12.4013 53.647 12.622 55.3386 14.3136C56.2809 15.2559 57.0853 16.6695 57.0853 18.8577C57.0853 20.4919 56.5865 21.517 56.0602 22.1559C55.5062 22.8478 54.5915 23.4039 53.5112 23.6246V23.7901C53.872 23.9833 54.2328 24.2613 54.4811 24.6497L58.6389 30.8854H50.907L48.2477 25.4817C48.1649 25.2886 48.0821 25.2037 47.9993 24.9002L47.889 24.9553V30.8854H41.3499H41.3435ZM47.8847 20.632H48.6615C49.0499 20.632 49.659 20.5768 50.075 20.216C50.2979 20.0229 50.5462 19.6621 50.5462 19.0805C50.5462 18.6645 50.4358 18.2485 50.1854 17.9726C49.9625 17.7243 49.6039 17.4739 49.0499 17.4739H47.8847V20.632Z" fill="black"/>
<path d="M61.0446 30.8854V12.4013H73.5157V17.4739H67.7513V19.1909H72.9894V24.0406H67.7513V25.8149H73.6813V30.8875H61.0446V30.8854Z" fill="black"/>
<path d="M1.29274 0.222853V3.73119H1.04655V0.222853H0.0787354V0H2.26056V0.222853H1.29274Z" fill="black"/>
<path d="M3.09007 1.58332H5.35042V0H5.59662V3.73332H5.35042V1.80829H3.09007V3.73332H2.84387V0H3.09007V1.58332Z" fill="black"/>
<path d="M8.39494 0.222853H6.84983V1.57695H8.36098V1.7998H6.84983V3.50622H8.39494V3.72907H6.60364V0H8.39494V0.222853Z" fill="black"/>
<path d="M11.9388 33.0664H12.2023L12.7293 33.9534H12.7516L13.2786 33.0664H13.5421L12.8555 34.1835V34.9666H12.6254V34.1835L11.9388 33.0664Z" fill="black"/>
<path d="M15.3536 34.0165C15.3536 34.2169 15.3174 34.3901 15.245 34.5361C15.1727 34.6821 15.0734 34.7946 14.9472 34.8738C14.821 34.953 14.6769 34.9926 14.5149 34.9926C14.3528 34.9926 14.2087 34.953 14.0825 34.8738C13.9563 34.7946 13.8571 34.6821 13.7847 34.5361C13.7123 34.3901 13.6761 34.2169 13.6761 34.0165C13.6761 33.8161 13.7123 33.6429 13.7847 33.4969C13.8571 33.351 13.9563 33.2384 14.0825 33.1592C14.2087 33.0801 14.3528 33.0405 14.5149 33.0405C14.6769 33.0405 14.821 33.0801 14.9472 33.1592C15.0734 33.2384 15.1727 33.351 15.245 33.4969C15.3174 33.6429 15.3536 33.8161 15.3536 34.0165ZM15.1309 34.0165C15.1309 33.852 15.1034 33.7131 15.0483 33.5999C14.9939 33.4867 14.92 33.4011 14.8266 33.3429C14.7338 33.2848 14.6299 33.2557 14.5149 33.2557C14.3998 33.2557 14.2956 33.2848 14.2022 33.3429C14.1094 33.4011 14.0355 33.4867 13.9805 33.5999C13.926 33.7131 13.8988 33.852 13.8988 34.0165C13.8988 34.181 13.926 34.3199 13.9805 34.4331C14.0355 34.5463 14.1094 34.632 14.2022 34.6901C14.2956 34.7482 14.3998 34.7773 14.5149 34.7773C14.6299 34.7773 14.7338 34.7482 14.8266 34.6901C14.92 34.632 14.9939 34.5463 15.0483 34.4331C15.1034 34.3199 15.1309 34.181 15.1309 34.0165Z" fill="black"/>
<path d="M16.9874 33.0664H17.2175V34.3245C17.2175 34.4544 17.1869 34.5704 17.1257 34.6725C17.0651 34.7739 16.9794 34.854 16.8687 34.9128C16.758 34.9709 16.6281 35 16.479 35C16.3299 35 16.2 34.9709 16.0893 34.9128C15.9786 34.854 15.8926 34.7739 15.8314 34.6725C15.7708 34.5704 15.7405 34.4544 15.7405 34.3245V33.0664H15.9706V34.306C15.9706 34.3988 15.991 34.4813 16.0318 34.5537C16.0726 34.6255 16.1308 34.6821 16.2062 34.7235C16.2823 34.7643 16.3732 34.7847 16.479 34.7847C16.5848 34.7847 16.6757 34.7643 16.7518 34.7235C16.8279 34.6821 16.886 34.6255 16.9262 34.5537C16.967 34.4813 16.9874 34.3988 16.9874 34.306V33.0664Z" fill="black"/>
<path d="M17.677 34.9666V33.0664H18.319C18.4675 33.0664 18.5893 33.0918 18.6846 33.1425C18.7799 33.1926 18.8504 33.2616 18.8961 33.3494C18.9419 33.4373 18.9648 33.5371 18.9648 33.6491C18.9648 33.7611 18.9419 33.8603 18.8961 33.9469C18.8504 34.0335 18.7802 34.1016 18.6855 34.151C18.5909 34.1999 18.47 34.2243 18.3228 34.2243H17.8032V34.0165H18.3153C18.4168 34.0165 18.4984 34.0017 18.5603 33.972C18.6227 33.9423 18.6679 33.9002 18.6957 33.8458C18.7242 33.7907 18.7384 33.7252 18.7384 33.6491C18.7384 33.573 18.7242 33.5065 18.6957 33.4496C18.6673 33.3927 18.6218 33.3488 18.5593 33.3179C18.4969 33.2863 18.4143 33.2706 18.3116 33.2706H17.9071V34.9666H17.677ZM18.5714 34.113L19.039 34.9666H18.7718L18.3116 34.113H18.5714Z" fill="black"/>
<path d="M20.4282 34.9666L19.9086 33.0664H20.1424L20.5395 34.614H20.558L20.9626 33.0664H21.2223L21.6269 34.614H21.6454L22.0425 33.0664H22.2763L21.7568 34.9666H21.5192L21.0999 33.4524H21.085L20.6657 34.9666H20.4282Z" fill="black"/>
<path d="M24.0769 34.0165C24.0769 34.2169 24.0407 34.3901 23.9684 34.5361C23.896 34.6821 23.7967 34.7946 23.6706 34.8738C23.5444 34.953 23.4003 34.9926 23.2382 34.9926C23.0762 34.9926 22.932 34.953 22.8059 34.8738C22.6797 34.7946 22.5804 34.6821 22.508 34.5361C22.4357 34.3901 22.3995 34.2169 22.3995 34.0165C22.3995 33.8161 22.4357 33.6429 22.508 33.4969C22.5804 33.351 22.6797 33.2384 22.8059 33.1592C22.932 33.0801 23.0762 33.0405 23.2382 33.0405C23.4003 33.0405 23.5444 33.0801 23.6706 33.1592C23.7967 33.2384 23.896 33.351 23.9684 33.4969C24.0407 33.6429 24.0769 33.8161 24.0769 34.0165ZM23.8543 34.0165C23.8543 33.852 23.8267 33.7131 23.7717 33.5999C23.7173 33.4867 23.6433 33.4011 23.5499 33.3429C23.4572 33.2848 23.3533 33.2557 23.2382 33.2557C23.1232 33.2557 23.0189 33.2848 22.9255 33.3429C22.8328 33.4011 22.7588 33.4867 22.7038 33.5999C22.6494 33.7131 22.6222 33.852 22.6222 34.0165C22.6222 34.181 22.6494 34.3199 22.7038 34.4331C22.7588 34.5463 22.8328 34.632 22.9255 34.6901C23.0189 34.7482 23.1232 34.7773 23.2382 34.7773C23.3533 34.7773 23.4572 34.7482 23.5499 34.6901C23.6433 34.632 23.7173 34.5463 23.7717 34.4331C23.8267 34.3199 23.8543 34.181 23.8543 34.0165Z" fill="black"/>
<path d="M24.4638 34.9666V33.0664H25.1059C25.2543 33.0664 25.3762 33.0918 25.4714 33.1425C25.5667 33.1926 25.6372 33.2616 25.6829 33.3494C25.7287 33.4373 25.7516 33.5371 25.7516 33.6491C25.7516 33.7611 25.7287 33.8603 25.6829 33.9469C25.6372 34.0335 25.567 34.1016 25.4723 34.151C25.3777 34.1999 25.2568 34.2243 25.1096 34.2243H24.59V34.0165H25.1021C25.2036 34.0165 25.2852 34.0017 25.3471 33.972C25.4096 33.9423 25.4547 33.9002 25.4825 33.8458C25.511 33.7907 25.5252 33.7252 25.5252 33.6491C25.5252 33.573 25.511 33.5065 25.4825 33.4496C25.4541 33.3927 25.4086 33.3488 25.3462 33.3179C25.2837 33.2863 25.2011 33.2706 25.0984 33.2706H24.6939V34.9666H24.4638ZM25.3582 34.113L25.8258 34.9666H25.5586L25.0984 34.113H25.3582Z" fill="black"/>
<path d="M26.135 34.9666V33.0664H26.3651V34.7625H27.2484V34.9666H26.135Z" fill="black"/>
<path d="M28.191 34.9666H27.6046V33.0664H28.217C28.4013 33.0664 28.559 33.1045 28.6902 33.1806C28.8213 33.256 28.9218 33.3646 28.9917 33.5062C29.0616 33.6472 29.0965 33.8161 29.0965 34.0128C29.0965 34.2107 29.0613 34.3811 28.9908 34.524C28.9202 34.6663 28.8176 34.7758 28.6827 34.8525C28.5479 34.9285 28.384 34.9666 28.191 34.9666ZM27.8347 34.7625H28.1762C28.3333 34.7625 28.4635 34.7322 28.5668 34.6715C28.6701 34.6109 28.7471 34.5246 28.7978 34.4127C28.8485 34.3007 28.8739 34.1674 28.8739 34.0128C28.8739 33.8594 28.8488 33.7273 28.7987 33.6166C28.7486 33.5053 28.6738 33.4199 28.5742 33.3606C28.4746 33.3006 28.3506 33.2706 28.2021 33.2706H27.8347V34.7625Z" fill="black"/>
<path d="M29.4925 34.9814C29.4467 34.9814 29.4074 34.965 29.3746 34.9323C29.3419 34.8995 29.3255 34.8602 29.3255 34.8144C29.3255 34.7686 29.3419 34.7294 29.3746 34.6966C29.4074 34.6638 29.4467 34.6474 29.4925 34.6474C29.5382 34.6474 29.5775 34.6638 29.6103 34.6966C29.6431 34.7294 29.6595 34.7686 29.6595 34.8144C29.6595 34.8447 29.6517 34.8726 29.6363 34.8979C29.6214 34.9233 29.6013 34.9437 29.576 34.9592C29.5512 34.974 29.5234 34.9814 29.4925 34.9814Z" fill="black"/>
<path d="M30.6536 33.0664H30.9171L31.4441 33.9534H31.4663L31.9933 33.0664H32.2568L31.5703 34.1835V34.9666H31.3402V34.1835L30.6536 33.0664Z" fill="black"/>
<path d="M34.0683 34.0165C34.0683 34.2169 34.0322 34.3901 33.9598 34.5361C33.8874 34.6821 33.7881 34.7946 33.662 34.8738C33.5358 34.953 33.3917 34.9926 33.2296 34.9926C33.0676 34.9926 32.9234 34.953 32.7973 34.8738C32.6711 34.7946 32.5718 34.6821 32.4994 34.5361C32.4271 34.3901 32.3909 34.2169 32.3909 34.0165C32.3909 33.8161 32.4271 33.6429 32.4994 33.4969C32.5718 33.351 32.6711 33.2384 32.7973 33.1592C32.9234 33.0801 33.0676 33.0405 33.2296 33.0405C33.3917 33.0405 33.5358 33.0801 33.662 33.1592C33.7881 33.2384 33.8874 33.351 33.9598 33.4969C34.0322 33.6429 34.0683 33.8161 34.0683 34.0165ZM33.8457 34.0165C33.8457 33.852 33.8181 33.7131 33.7631 33.5999C33.7087 33.4867 33.6348 33.4011 33.5414 33.3429C33.4486 33.2848 33.3447 33.2557 33.2296 33.2557C33.1146 33.2557 33.0103 33.2848 32.917 33.3429C32.8242 33.4011 32.7503 33.4867 32.6952 33.5999C32.6408 33.7131 32.6136 33.852 32.6136 34.0165C32.6136 34.181 32.6408 34.3199 32.6952 34.4331C32.7503 34.5463 32.8242 34.632 32.917 34.6901C33.0103 34.7482 33.1146 34.7773 33.2296 34.7773C33.3447 34.7773 33.4486 34.7482 33.5414 34.6901C33.6348 34.632 33.7087 34.5463 33.7631 34.4331C33.8181 34.3199 33.8457 34.181 33.8457 34.0165Z" fill="black"/>
<path d="M35.7022 33.0664H35.9323V34.3245C35.9323 34.4544 35.9017 34.5704 35.8404 34.6725C35.7798 34.7739 35.6941 34.854 35.5834 34.9128C35.4727 34.9709 35.3428 35 35.1938 35C35.0447 35 34.9148 34.9709 34.8041 34.9128C34.6934 34.854 34.6074 34.7739 34.5462 34.6725C34.4855 34.5704 34.4552 34.4544 34.4552 34.3245V33.0664H34.6853V34.306C34.6853 34.3988 34.7057 34.4813 34.7466 34.5537C34.7874 34.6255 34.8455 34.6821 34.921 34.7235C34.9971 34.7643 35.088 34.7847 35.1938 34.7847C35.2995 34.7847 35.3904 34.7643 35.4665 34.7235C35.5426 34.6821 35.6007 34.6255 35.641 34.5537C35.6818 34.4813 35.7022 34.3988 35.7022 34.306V33.0664Z" fill="black"/>
<path d="M36.3918 34.9666V33.0664H37.0338C37.1822 33.0664 37.3041 33.0918 37.3994 33.1425C37.4946 33.1926 37.5651 33.2616 37.6109 33.3494C37.6567 33.4373 37.6795 33.5371 37.6795 33.6491C37.6795 33.7611 37.6567 33.8603 37.6109 33.9469C37.5651 34.0335 37.4949 34.1016 37.4003 34.151C37.3056 34.1999 37.1847 34.2243 37.0375 34.2243H36.5179V34.0165H37.0301C37.1315 34.0165 37.2132 34.0017 37.275 33.972C37.3375 33.9423 37.3827 33.9002 37.4105 33.8458C37.4389 33.7907 37.4532 33.7252 37.4532 33.6491C37.4532 33.573 37.4389 33.5065 37.4105 33.4496C37.382 33.3927 37.3366 33.3488 37.2741 33.3179C37.2116 33.2863 37.1291 33.2706 37.0264 33.2706H36.6219V34.9666H36.3918ZM37.2862 34.113L37.7538 34.9666H37.4866L37.0264 34.113H37.2862Z" fill="black"/>
<path d="M38.8757 33.0664L39.4398 34.666H39.4621L40.0262 33.0664H40.2674L39.5697 34.9666H39.3322L38.6345 33.0664H38.8757Z" fill="black"/>
<path d="M42.0773 34.0165C42.0773 34.2169 42.0411 34.3901 41.9687 34.5361C41.8964 34.6821 41.7971 34.7946 41.6709 34.8738C41.5447 34.953 41.4006 34.9926 41.2386 34.9926C41.0765 34.9926 40.9324 34.953 40.8062 34.8738C40.68 34.7946 40.5808 34.6821 40.5084 34.5361C40.436 34.3901 40.3998 34.2169 40.3998 34.0165C40.3998 33.8161 40.436 33.6429 40.5084 33.4969C40.5808 33.351 40.68 33.2384 40.8062 33.1592C40.9324 33.0801 41.0765 33.0405 41.2386 33.0405C41.4006 33.0405 41.5447 33.0801 41.6709 33.1592C41.7971 33.2384 41.8964 33.351 41.9687 33.4969C42.0411 33.6429 42.0773 33.8161 42.0773 34.0165ZM41.8546 34.0165C41.8546 33.852 41.8271 33.7131 41.772 33.5999C41.7176 33.4867 41.6437 33.4011 41.5503 33.3429C41.4575 33.2848 41.3536 33.2557 41.2386 33.2557C41.1235 33.2557 41.0193 33.2848 40.9259 33.3429C40.8331 33.4011 40.7592 33.4867 40.7042 33.5999C40.6497 33.7131 40.6225 33.852 40.6225 34.0165C40.6225 34.181 40.6497 34.3199 40.7042 34.4331C40.7592 34.5463 40.8331 34.632 40.9259 34.6901C41.0193 34.7482 41.1235 34.7773 41.2386 34.7773C41.3536 34.7773 41.4575 34.7482 41.5503 34.6901C41.6437 34.632 41.7176 34.5463 41.772 34.4331C41.8271 34.3199 41.8546 34.181 41.8546 34.0165Z" fill="black"/>
<path d="M42.6943 33.0664V34.9666H42.4642V33.0664H42.6943Z" fill="black"/>
<path d="M44.6846 33.6602H44.4545C44.4409 33.5941 44.4171 33.5359 44.3831 33.4858C44.3497 33.4357 44.3089 33.3936 44.2606 33.3596C44.213 33.325 44.1601 33.299 44.102 33.2817C44.0438 33.2644 43.9832 33.2557 43.9201 33.2557C43.8051 33.2557 43.7008 33.2848 43.6075 33.3429C43.5147 33.4011 43.4408 33.4867 43.3857 33.5999C43.3313 33.7131 43.3041 33.852 43.3041 34.0165C43.3041 34.181 43.3313 34.3199 43.3857 34.4331C43.4408 34.5463 43.5147 34.632 43.6075 34.6901C43.7008 34.7482 43.8051 34.7773 43.9201 34.7773C43.9832 34.7773 44.0438 34.7686 44.102 34.7513C44.1601 34.734 44.213 34.7083 44.2606 34.6743C44.3089 34.6397 44.3497 34.5973 44.3831 34.5472C44.4171 34.4965 44.4409 34.4384 44.4545 34.3728H44.6846C44.6673 34.4699 44.6358 34.5568 44.59 34.6335C44.5442 34.7102 44.4873 34.7755 44.4193 34.8293C44.3512 34.8825 44.2748 34.923 44.1901 34.9508C44.106 34.9786 44.016 34.9926 43.9201 34.9926C43.7581 34.9926 43.6139 34.953 43.4878 34.8738C43.3616 34.7946 43.2623 34.6821 43.1899 34.5361C43.1176 34.3901 43.0814 34.2169 43.0814 34.0165C43.0814 33.8161 43.1176 33.6429 43.1899 33.4969C43.2623 33.351 43.3616 33.2384 43.4878 33.1592C43.6139 33.0801 43.7581 33.0405 43.9201 33.0405C44.016 33.0405 44.106 33.0544 44.1901 33.0822C44.2748 33.1101 44.3512 33.1509 44.4193 33.2047C44.4873 33.2579 44.5442 33.3228 44.59 33.3995C44.6358 33.4756 44.6673 33.5625 44.6846 33.6602Z" fill="black"/>
<path d="M45.0564 34.9666V33.0664H46.2032V33.2706H45.2865V33.9126H46.1438V34.1167H45.2865V34.7625H46.218V34.9666H45.0564Z" fill="black"/>
<path d="M46.7478 34.9814C46.702 34.9814 46.6628 34.965 46.63 34.9323C46.5972 34.8995 46.5808 34.8602 46.5808 34.8144C46.5808 34.7686 46.5972 34.7294 46.63 34.6966C46.6628 34.6638 46.702 34.6474 46.7478 34.6474C46.7936 34.6474 46.8328 34.6638 46.8656 34.6966C46.8984 34.7294 46.9148 34.7686 46.9148 34.8144C46.9148 34.8447 46.9071 34.8726 46.8916 34.8979C46.8768 34.9233 46.8567 34.9437 46.8313 34.9592C46.8066 34.974 46.7787 34.9814 46.7478 34.9814Z" fill="black"/>
<path d="M47.9089 33.0664H48.1724L48.6994 33.9534H48.7217L49.2487 33.0664H49.5122L48.8256 34.1835V34.9666H48.5955V34.1835L47.9089 33.0664Z" fill="black"/>
<path d="M51.3237 34.0165C51.3237 34.2169 51.2875 34.3901 51.2151 34.5361C51.1428 34.6821 51.0435 34.7946 50.9173 34.8738C50.7911 34.953 50.647 34.9926 50.485 34.9926C50.3229 34.9926 50.1788 34.953 50.0526 34.8738C49.9264 34.7946 49.8271 34.6821 49.7548 34.5361C49.6824 34.3901 49.6462 34.2169 49.6462 34.0165C49.6462 33.8161 49.6824 33.6429 49.7548 33.4969C49.8271 33.351 49.9264 33.2384 50.0526 33.1592C50.1788 33.0801 50.3229 33.0405 50.485 33.0405C50.647 33.0405 50.7911 33.0801 50.9173 33.1592C51.0435 33.2384 51.1428 33.351 51.2151 33.4969C51.2875 33.6429 51.3237 33.8161 51.3237 34.0165ZM51.101 34.0165C51.101 33.852 51.0735 33.7131 51.0184 33.5999C50.964 33.4867 50.8901 33.4011 50.7967 33.3429C50.7039 33.2848 50.6 33.2557 50.485 33.2557C50.3699 33.2557 50.2657 33.2848 50.1723 33.3429C50.0795 33.4011 50.0056 33.4867 49.9505 33.5999C49.8961 33.7131 49.8689 33.852 49.8689 34.0165C49.8689 34.181 49.8961 34.3199 49.9505 34.4331C50.0056 34.5463 50.0795 34.632 50.1723 34.6901C50.2657 34.7482 50.3699 34.7773 50.485 34.7773C50.6 34.7773 50.7039 34.7482 50.7967 34.6901C50.8901 34.632 50.964 34.5463 51.0184 34.4331C51.0735 34.3199 51.101 34.181 51.101 34.0165Z" fill="black"/>
<path d="M52.9575 33.0664H53.1876V34.3245C53.1876 34.4544 53.157 34.5704 53.0958 34.6725C53.0351 34.7739 52.9495 34.854 52.8388 34.9128C52.728 34.9709 52.5982 35 52.4491 35C52.3 35 52.1701 34.9709 52.0594 34.9128C51.9487 34.854 51.8627 34.7739 51.8015 34.6725C51.7409 34.5704 51.7106 34.4544 51.7106 34.3245V33.0664H51.9407V34.306C51.9407 34.3988 51.9611 34.4813 52.0019 34.5537C52.0427 34.6255 52.1009 34.6821 52.1763 34.7235C52.2524 34.7643 52.3433 34.7847 52.4491 34.7847C52.5549 34.7847 52.6458 34.7643 52.7219 34.7235C52.7979 34.6821 52.8561 34.6255 52.8963 34.5537C52.9371 34.4813 52.9575 34.3988 52.9575 34.306V33.0664Z" fill="black"/>
<path d="M53.6471 34.9666V33.0664H54.2891C54.4376 33.0664 54.5594 33.0918 54.6547 33.1425C54.7499 33.1926 54.8205 33.2616 54.8662 33.3494C54.912 33.4373 54.9349 33.5371 54.9349 33.6491C54.9349 33.7611 54.912 33.8603 54.8662 33.9469C54.8205 34.0335 54.7502 34.1016 54.6556 34.151C54.561 34.1999 54.4401 34.2243 54.2929 34.2243H53.7733V34.0165H54.2854C54.3869 34.0165 54.4685 34.0017 54.5304 33.972C54.5928 33.9423 54.638 33.9002 54.6658 33.8458C54.6943 33.7907 54.7085 33.7252 54.7085 33.6491C54.7085 33.573 54.6943 33.5065 54.6658 33.4496C54.6374 33.3927 54.5919 33.3488 54.5294 33.3179C54.467 33.2863 54.3844 33.2706 54.2817 33.2706H53.8772V34.9666H53.6471ZM54.5415 34.113L55.0091 34.9666H54.7419L54.2817 34.113H54.5415Z" fill="black"/>
<path d="M56.3982 34.9666L55.8787 33.0664H56.1125L56.5096 34.614H56.5281L56.9327 33.0664H57.1924L57.597 34.614H57.6155L58.0126 33.0664H58.2464L57.7268 34.9666H57.4893L57.07 33.4524H57.0551L56.6358 34.9666H56.3982Z" fill="black"/>
<path d="M58.7632 33.0664V34.9666H58.5331V33.0664H58.7632Z" fill="black"/>
<path d="M59.2245 34.9666V33.0664H59.8666C60.015 33.0664 60.1369 33.0918 60.2321 33.1425C60.3274 33.1926 60.3979 33.2616 60.4437 33.3494C60.4894 33.4373 60.5123 33.5371 60.5123 33.6491C60.5123 33.7611 60.4894 33.8603 60.4437 33.9469C60.3979 34.0335 60.3277 34.1016 60.233 34.151C60.1384 34.1999 60.0175 34.2243 59.8703 34.2243H59.3507V34.0165H59.8629C59.9643 34.0165 60.0459 34.0017 60.1078 33.972C60.1703 33.9423 60.2154 33.9002 60.2433 33.8458C60.2717 33.7907 60.2859 33.7252 60.2859 33.6491C60.2859 33.573 60.2717 33.5065 60.2433 33.4496C60.2148 33.3927 60.1693 33.3488 60.1069 33.3179C60.0444 33.2863 59.9618 33.2706 59.8591 33.2706H59.4546V34.9666H59.2245ZM60.1189 34.113L60.5865 34.9666H60.3193L59.8591 34.113H60.1189Z" fill="black"/>
<path d="M60.8957 34.9666V33.0664H62.0425V33.2706H61.1258V33.9126H61.9831V34.1167H61.1258V34.7625H62.0573V34.9666H60.8957Z" fill="black"/>
<path d="M75.0411 12.0435V11.8183H76.6133V12.0435H75.9541V13.9145H75.7003V12.0435H75.0411Z" fill="black"/>
<path d="M77.005 11.8183H77.308L78.0203 13.5583H78.0449L78.7573 11.8183H79.0602V13.9145H78.8228V12.3219H78.8023L78.1472 13.9145H77.918L77.2629 12.3219H77.2425V13.9145H77.005V11.8183Z" fill="black"/>
</svg>
