<svg width="91" height="40" viewBox="0 0 91 40" fill="none" xmlns="http://www.w3.org/2000/svg">
<path d="M2.31495 10.3527V12.4581H0.667969V6.10547H3.29732C3.85036 6.10547 4.42038 6.20977 4.90793 6.67791C5.40275 7.15333 5.49977 7.68696 5.49977 8.2206C5.49977 8.72512 5.43186 9.31697 4.93703 9.80209C4.44221 10.2872 3.85036 10.3551 3.35554 10.3551H2.31738L2.31495 10.3527ZM2.31495 9.01862H2.86799C3.04021 9.01862 3.36282 8.99922 3.56414 8.81972C3.76547 8.6475 3.77274 8.39039 3.77274 8.23758C3.77274 8.06536 3.75334 7.83735 3.58112 7.66513C3.3895 7.46623 3.0863 7.43713 2.87527 7.43713H2.31253V9.01862H2.31495Z" fill="white"/>
<path d="M9.98409 7.5026H8.02177V8.56017H9.87979V9.95974H8.02177V11.0561H9.98409V12.4557H6.37479V6.10303H9.98409V7.5026Z" fill="white"/>
<path d="M16.7528 11.6577C16.1052 12.2762 15.1907 12.6013 14.2472 12.6013C13.3036 12.6013 12.3892 12.2762 11.7415 11.6577C11.0648 11.0101 10.7422 10.1247 10.7422 9.28547C10.7422 8.44621 11.0648 7.54146 11.7415 6.90352C12.3892 6.28499 13.3036 5.95996 14.2472 5.95996C15.1907 5.95996 16.1052 6.28499 16.7528 6.90352C17.4296 7.54146 17.7522 8.4365 17.7522 9.28547C17.7522 10.1344 17.4296 11.0101 16.7528 11.6577ZM12.9616 8.06539C12.6196 8.39769 12.4571 8.86584 12.4571 9.31215C12.4571 9.87489 12.7239 10.2654 12.9616 10.4934C13.2672 10.7893 13.6941 10.9979 14.2472 10.9979C14.8002 10.9979 15.2271 10.799 15.5231 10.5031C15.819 10.2072 16.0373 9.77059 16.0373 9.28304C16.0373 8.79549 15.819 8.34918 15.5231 8.06296C15.1713 7.73065 14.6838 7.55843 14.2472 7.55843C13.8106 7.55843 13.3036 7.72095 12.9616 8.06296V8.06539Z" fill="white"/>
<path d="M20.4517 10.3527V12.4581H18.8047V6.10547H21.434C21.9871 6.10547 22.5571 6.20977 23.0446 6.67791C23.5395 7.15333 23.6365 7.68696 23.6365 8.2206C23.6365 8.72512 23.5686 9.31697 23.0738 9.80209C22.5789 10.2872 21.9871 10.3551 21.4923 10.3551H20.4541L20.4517 10.3527ZM20.4517 9.01862H21.0047C21.1769 9.01862 21.4995 8.99922 21.7009 8.81972C21.9022 8.6475 21.9095 8.39039 21.9095 8.23758C21.9095 8.06536 21.8901 7.83735 21.7178 7.66513C21.5262 7.46623 21.223 7.43713 21.012 7.43713H20.4492V9.01862H20.4517Z" fill="white"/>
<path d="M26.1548 6.10303V11.0561H28.1365V12.4557H24.5078V6.10303H26.1548Z" fill="white"/>
<path d="M32.5937 7.5026H30.6314V8.56017H32.4894V9.95974H30.6314V11.0561H32.5937V12.4557H28.9844V6.10303H32.5937V7.5026Z" fill="white"/>
<path d="M0 14.1729H7.94871L10.2603 24.1809C10.418 24.9086 10.6096 25.5417 10.6096 26.7787H10.7988C10.8619 25.4495 11.0511 24.341 11.3373 23.2325L13.6489 14.1753H19.5407L21.9784 23.8025C22.1676 24.5617 22.3592 25.9564 22.4223 26.7787H22.58C22.6115 25.418 22.8007 24.4987 23.0554 23.3902L25.2408 14.1729H33.2211L25.7793 35.2974H19.0968L17.1005 26.6817C16.9113 25.8255 16.7537 24.8455 16.6882 23.8001H16.4359C16.4044 24.4962 16.2782 26.0171 16.1181 26.6817L13.9327 35.2974H7.4078L0 14.1729Z" fill="white"/>
<path d="M35.3398 35.2974V14.1729H43.0048V35.2974H35.3398Z" fill="white"/>
<path d="M39.1736 12.4581C40.9285 12.4581 42.3512 11.0355 42.3512 9.28057C42.3512 7.52566 40.9285 6.10303 39.1736 6.10303C37.4187 6.10303 35.9961 7.52566 35.9961 9.28057C35.9961 11.0355 37.4187 12.4581 39.1736 12.4581Z" fill="#F25C05"/>
<path d="M47.25 35.2974V14.1729H56.7826C58.9996 14.1729 61.3112 14.4251 63.2444 16.3583C64.3214 17.4353 65.2407 19.0507 65.2407 21.5515C65.2407 23.4193 64.6707 24.5908 64.0691 25.3209C63.4361 26.1117 62.3906 26.7472 61.156 26.9995V27.1886C61.5683 27.4094 61.9807 27.7271 62.2645 28.171L67.0163 35.2974H58.1798L55.1405 29.1219C55.0459 28.9011 54.9513 28.8041 54.8567 28.4572L54.7306 28.5203V35.2974H47.2573H47.25ZM54.7257 23.5793H55.6135C56.0574 23.5793 56.7535 23.5163 57.2289 23.1039C57.4836 22.8832 57.7674 22.4708 57.7674 21.8062C57.7674 21.3308 57.6413 20.8554 57.3551 20.5401C57.1004 20.2563 56.6905 19.97 56.0574 19.97H54.7257V23.5793Z" fill="white"/>
<path d="M69.7655 35.2974V14.1729H84.0184V19.97H77.4304V21.9324H83.4168V27.4749H77.4304V29.5027H84.2076V35.2999H69.7655V35.2974Z" fill="white"/>
<path d="M1.47746 0.254689V4.26421H1.19609V0.254689H0.0900116V0H2.58353V0.254689H1.47746Z" fill="white"/>
<path d="M3.53154 1.8095H6.11481V0H6.39618V4.26664H6.11481V2.06662H3.53154V4.26664H3.25017V0H3.53154V1.8095Z" fill="white"/>
<path d="M9.59425 0.254689H7.82841V1.80222H9.55544V2.05691H7.82841V4.0071H9.59425V4.26179H7.54704V0H9.59425V0.254689Z" fill="white"/>
<path d="M13.6445 37.7904H13.9457L14.5479 38.8041H14.5734L15.1757 37.7904H15.4768L14.6921 39.0671V39.962H14.4292V39.0671L13.6445 37.7904Z" fill="white"/>
<path d="M17.5471 38.8762C17.5471 39.1053 17.5058 39.3032 17.4231 39.47C17.3403 39.6368 17.2269 39.7655 17.0827 39.856C16.9385 39.9465 16.7738 39.9917 16.5886 39.9917C16.4034 39.9917 16.2387 39.9465 16.0944 39.856C15.9502 39.7655 15.8368 39.6368 15.7541 39.47C15.6714 39.3032 15.63 39.1053 15.63 38.8762C15.63 38.6472 15.6714 38.4493 15.7541 38.2824C15.8368 38.1156 15.9502 37.9869 16.0944 37.8965C16.2387 37.806 16.4034 37.7607 16.5886 37.7607C16.7738 37.7607 16.9385 37.806 17.0827 37.8965C17.2269 37.9869 17.3403 38.1156 17.4231 38.2824C17.5058 38.4493 17.5471 38.6472 17.5471 38.8762ZM17.2926 38.8762C17.2926 38.6882 17.2612 38.5295 17.1983 38.4001C17.1361 38.2708 17.0516 38.1729 16.9448 38.1064C16.8388 38.04 16.72 38.0067 16.5886 38.0067C16.4571 38.0067 16.338 38.04 16.2312 38.1064C16.1252 38.1729 16.0407 38.2708 15.9778 38.4001C15.9156 38.5295 15.8845 38.6882 15.8845 38.8762C15.8845 39.0643 15.9156 39.223 15.9778 39.3523C16.0407 39.4817 16.1252 39.5796 16.2312 39.646C16.338 39.7125 16.4571 39.7457 16.5886 39.7457C16.72 39.7457 16.8388 39.7125 16.9448 39.646C17.0516 39.5796 17.1361 39.4817 17.1983 39.3523C17.2612 39.223 17.2926 39.0643 17.2926 38.8762Z" fill="white"/>
<path d="M19.4144 37.7904H19.6773V39.2283C19.6773 39.3767 19.6423 39.5092 19.5724 39.6259C19.5031 39.7418 19.4052 39.8334 19.2787 39.9005C19.1521 39.967 19.0037 40.0002 18.8333 40.0002C18.6629 40.0002 18.5145 39.967 18.388 39.9005C18.2614 39.8334 18.1632 39.7418 18.0932 39.6259C18.0239 39.5092 17.9893 39.3767 17.9893 39.2283V37.7904H18.2522V39.207C18.2522 39.3131 18.2756 39.4075 18.3222 39.4902C18.3689 39.5722 18.4353 39.6368 18.5216 39.6842C18.6085 39.7309 18.7124 39.7542 18.8333 39.7542C18.9542 39.7542 19.0581 39.7309 19.145 39.6842C19.232 39.6368 19.2984 39.5722 19.3444 39.4902C19.391 39.4075 19.4144 39.3131 19.4144 39.207V37.7904Z" fill="white"/>
<path d="M20.2025 39.962V37.7904H20.9362C21.1059 37.7904 21.2451 37.8194 21.354 37.8774C21.4629 37.9346 21.5435 38.0135 21.5958 38.1138C21.6481 38.2142 21.6742 38.3284 21.6742 38.4563C21.6742 38.5843 21.6481 38.6977 21.5958 38.7967C21.5435 38.8957 21.4632 38.9734 21.3551 39.03C21.2469 39.0858 21.1087 39.1137 20.9405 39.1137H20.3467V38.8762H20.932C21.0479 38.8762 21.1412 38.8593 21.2119 38.8253C21.2833 38.7914 21.3349 38.7433 21.3667 38.6811C21.3992 38.6182 21.4155 38.5433 21.4155 38.4563C21.4155 38.3694 21.3992 38.2934 21.3667 38.2284C21.3342 38.1633 21.2823 38.1131 21.2109 38.0778C21.1395 38.0417 21.0451 38.0237 20.9277 38.0237H20.4654V39.962H20.2025ZM21.2246 38.9865L21.7591 39.962H21.4537L20.9277 38.9865H21.2246Z" fill="white"/>
<path d="M23.3467 39.962L22.7529 37.7904H23.0201L23.4739 39.5591H23.4951L23.9574 37.7904H24.2543L24.7166 39.5591H24.7378L25.1916 37.7904H25.4588L24.8651 39.962H24.5936L24.1143 38.2315H24.0974L23.6181 39.962H23.3467Z" fill="white"/>
<path d="M27.5167 38.8762C27.5167 39.1053 27.4754 39.3032 27.3926 39.47C27.3099 39.6368 27.1965 39.7655 27.0523 39.856C26.9081 39.9465 26.7434 39.9917 26.5582 39.9917C26.373 39.9917 26.2082 39.9465 26.064 39.856C25.9198 39.7655 25.8064 39.6368 25.7237 39.47C25.641 39.3032 25.5996 39.1053 25.5996 38.8762C25.5996 38.6472 25.641 38.4493 25.7237 38.2824C25.8064 38.1156 25.9198 37.9869 26.064 37.8965C26.2082 37.806 26.373 37.7607 26.5582 37.7607C26.7434 37.7607 26.9081 37.806 27.0523 37.8965C27.1965 37.9869 27.3099 38.1156 27.3926 38.2824C27.4754 38.4493 27.5167 38.6472 27.5167 38.8762ZM27.2622 38.8762C27.2622 38.6882 27.2308 38.5295 27.1679 38.4001C27.1056 38.2708 27.0212 38.1729 26.9144 38.1064C26.8084 38.04 26.6896 38.0067 26.5582 38.0067C26.4267 38.0067 26.3076 38.04 26.2008 38.1064C26.0948 38.1729 26.0103 38.2708 25.9474 38.4001C25.8852 38.5295 25.8541 38.6882 25.8541 38.8762C25.8541 39.0643 25.8852 39.223 25.9474 39.3523C26.0103 39.4817 26.0948 39.5796 26.2008 39.646C26.3076 39.7125 26.4267 39.7457 26.5582 39.7457C26.6896 39.7457 26.8084 39.7125 26.9144 39.646C27.0212 39.5796 27.1056 39.4817 27.1679 39.3523C27.2308 39.223 27.2622 39.0643 27.2622 38.8762Z" fill="white"/>
<path d="M27.9589 39.962V37.7904H28.6926C28.8623 37.7904 29.0015 37.8194 29.1104 37.8774C29.2193 37.9346 29.2998 38.0135 29.3522 38.1138C29.4045 38.2142 29.4306 38.3284 29.4306 38.4563C29.4306 38.5843 29.4045 38.6977 29.3522 38.7967C29.2998 38.8957 29.2196 38.9734 29.1115 39.03C29.0033 39.0858 28.8651 39.1137 28.6969 39.1137H28.1031V38.8762H28.6884C28.8043 38.8762 28.8976 38.8593 28.9683 38.8253C29.0397 38.7914 29.0913 38.7433 29.1231 38.6811C29.1556 38.6182 29.1719 38.5433 29.1719 38.4563C29.1719 38.3694 29.1556 38.2934 29.1231 38.2284C29.0906 38.1633 29.0386 38.1131 28.9673 38.0778C28.8959 38.0417 28.8015 38.0237 28.6841 38.0237H28.2218V39.962H27.9589ZM28.981 38.9865L29.5154 39.962H29.2101L28.6841 38.9865H28.981Z" fill="white"/>
<path d="M29.8688 39.962V37.7904H30.1318V39.7287H31.1412V39.962H29.8688Z" fill="white"/>
<path d="M32.2185 39.962H31.5484V37.7904H32.2482C32.4589 37.7904 32.6391 37.8339 32.789 37.9209C32.9388 38.0071 33.0537 38.1312 33.1336 38.293C33.2135 38.4542 33.2534 38.6472 33.2534 38.872C33.2534 39.0982 33.2131 39.2929 33.1325 39.4562C33.052 39.6188 32.9346 39.7439 32.7805 39.8316C32.6264 39.9185 32.4391 39.962 32.2185 39.962ZM31.8114 39.7287H32.2016C32.3811 39.7287 32.5299 39.6941 32.648 39.6248C32.766 39.5555 32.854 39.4569 32.912 39.329C32.97 39.201 32.9989 39.0487 32.9989 38.872C32.9989 38.6967 32.9703 38.5457 32.913 38.4192C32.8558 38.292 32.7703 38.1944 32.6564 38.1266C32.5426 38.058 32.4009 38.0237 32.2312 38.0237H31.8114V39.7287Z" fill="white"/>
<path d="M33.7059 39.979C33.6536 39.979 33.6087 39.9602 33.5713 39.9228C33.5338 39.8853 33.5151 39.8404 33.5151 39.7881C33.5151 39.7358 33.5338 39.6909 33.5713 39.6535C33.6087 39.616 33.6536 39.5973 33.7059 39.5973C33.7582 39.5973 33.8031 39.616 33.8406 39.6535C33.878 39.6909 33.8968 39.7358 33.8968 39.7881C33.8968 39.8228 33.8879 39.8546 33.8703 39.8835C33.8533 39.9125 33.8303 39.9359 33.8013 39.9535C33.7731 39.9705 33.7413 39.979 33.7059 39.979Z" fill="white"/>
<path d="M35.0329 37.7904H35.3341L35.9363 38.8041H35.9618L36.5641 37.7904H36.8652L36.0805 39.0671V39.962H35.8176V39.0671L35.0329 37.7904Z" fill="white"/>
<path d="M38.9355 38.8762C38.9355 39.1053 38.8942 39.3032 38.8115 39.47C38.7288 39.6368 38.6153 39.7655 38.4711 39.856C38.3269 39.9465 38.1622 39.9917 37.977 39.9917C37.7918 39.9917 37.6271 39.9465 37.4828 39.856C37.3386 39.7655 37.2252 39.6368 37.1425 39.47C37.0598 39.3032 37.0184 39.1053 37.0184 38.8762C37.0184 38.6472 37.0598 38.4493 37.1425 38.2824C37.2252 38.1156 37.3386 37.9869 37.4828 37.8965C37.6271 37.806 37.7918 37.7607 37.977 37.7607C38.1622 37.7607 38.3269 37.806 38.4711 37.8965C38.6153 37.9869 38.7288 38.1156 38.8115 38.2824C38.8942 38.4493 38.9355 38.6472 38.9355 38.8762ZM38.681 38.8762C38.681 38.6882 38.6496 38.5295 38.5867 38.4001C38.5245 38.2708 38.44 38.1729 38.3332 38.1064C38.2272 38.04 38.1085 38.0067 37.977 38.0067C37.8455 38.0067 37.7264 38.04 37.6196 38.1064C37.5136 38.1729 37.4291 38.2708 37.3662 38.4001C37.304 38.5295 37.2729 38.6882 37.2729 38.8762C37.2729 39.0643 37.304 39.223 37.3662 39.3523C37.4291 39.4817 37.5136 39.5796 37.6196 39.646C37.7264 39.7125 37.8455 39.7457 37.977 39.7457C38.1085 39.7457 38.2272 39.7125 38.3332 39.646C38.44 39.5796 38.5245 39.4817 38.5867 39.3523C38.6496 39.223 38.681 39.0643 38.681 38.8762Z" fill="white"/>
<path d="M40.8028 37.7904H41.0657V39.2283C41.0657 39.3767 41.0308 39.5092 40.9608 39.6259C40.8915 39.7418 40.7936 39.8334 40.6671 39.9005C40.5405 39.967 40.3921 40.0002 40.2217 40.0002C40.0513 40.0002 39.9029 39.967 39.7764 39.9005C39.6498 39.8334 39.5516 39.7418 39.4816 39.6259C39.4123 39.5092 39.3777 39.3767 39.3777 39.2283V37.7904H39.6406V39.207C39.6406 39.3131 39.664 39.4075 39.7106 39.4902C39.7573 39.5722 39.8237 39.6368 39.91 39.6842C39.9969 39.7309 40.1008 39.7542 40.2217 39.7542C40.3426 39.7542 40.4465 39.7309 40.5335 39.6842C40.6204 39.6368 40.6868 39.5722 40.7328 39.4902C40.7794 39.4075 40.8028 39.3131 40.8028 39.207V37.7904Z" fill="white"/>
<path d="M41.5909 39.962V37.7904H42.3246C42.4943 37.7904 42.6335 37.8194 42.7424 37.8774C42.8513 37.9346 42.9319 38.0135 42.9842 38.1138C43.0365 38.2142 43.0626 38.3284 43.0626 38.4563C43.0626 38.5843 43.0365 38.6977 42.9842 38.7967C42.9319 38.8957 42.8516 38.9734 42.7435 39.03C42.6353 39.0858 42.4971 39.1137 42.3289 39.1137H41.7351V38.8762H42.3204C42.4363 38.8762 42.5296 38.8593 42.6003 38.8253C42.6717 38.7914 42.7233 38.7433 42.7551 38.6811C42.7876 38.6182 42.8039 38.5433 42.8039 38.4563C42.8039 38.3694 42.7876 38.2934 42.7551 38.2284C42.7226 38.1633 42.6707 38.1131 42.5993 38.0778C42.5279 38.0417 42.4335 38.0237 42.3161 38.0237H41.8538V39.962H41.5909ZM42.613 38.9865L43.1475 39.962H42.8421L42.3161 38.9865H42.613Z" fill="white"/>
<path d="M44.4297 37.7904L45.0744 39.6185H45.0998L45.7445 37.7904H46.0202L45.2228 39.962H44.9514L44.154 37.7904H44.4297Z" fill="white"/>
<path d="M48.0886 38.8762C48.0886 39.1053 48.0473 39.3032 47.9646 39.47C47.8819 39.6368 47.7684 39.7655 47.6242 39.856C47.48 39.9465 47.3153 39.9917 47.1301 39.9917C46.9449 39.9917 46.7802 39.9465 46.636 39.856C46.4918 39.7655 46.3783 39.6368 46.2956 39.47C46.2129 39.3032 46.1715 39.1053 46.1715 38.8762C46.1715 38.6472 46.2129 38.4493 46.2956 38.2824C46.3783 38.1156 46.4918 37.9869 46.636 37.8965C46.7802 37.806 46.9449 37.7607 47.1301 37.7607C47.3153 37.7607 47.48 37.806 47.6242 37.8965C47.7684 37.9869 47.8819 38.1156 47.9646 38.2824C48.0473 38.4493 48.0886 38.6472 48.0886 38.8762ZM47.8342 38.8762C47.8342 38.6882 47.8027 38.5295 47.7398 38.4001C47.6776 38.2708 47.5931 38.1729 47.4864 38.1064C47.3803 38.04 47.2616 38.0067 47.1301 38.0067C46.9986 38.0067 46.8795 38.04 46.7728 38.1064C46.6667 38.1729 46.5823 38.2708 46.5193 38.4001C46.4571 38.5295 46.426 38.6882 46.426 38.8762C46.426 39.0643 46.4571 39.223 46.5193 39.3523C46.5823 39.4817 46.6667 39.5796 46.7728 39.646C46.8795 39.7125 46.9986 39.7457 47.1301 39.7457C47.2616 39.7457 47.3803 39.7125 47.4864 39.646C47.5931 39.5796 47.6776 39.4817 47.7398 39.3523C47.8027 39.223 47.8342 39.0643 47.8342 38.8762Z" fill="white"/>
<path d="M48.7938 37.7904V39.962H48.5308V37.7904H48.7938Z" fill="white"/>
<path d="M51.0685 38.4691H50.8055C50.79 38.3934 50.7627 38.327 50.7239 38.2697C50.6857 38.2124 50.639 38.1644 50.5839 38.1255C50.5295 38.0859 50.469 38.0562 50.4026 38.0364C50.3361 38.0166 50.2668 38.0067 50.1947 38.0067C50.0633 38.0067 49.9442 38.04 49.8374 38.1064C49.7314 38.1729 49.6469 38.2708 49.584 38.4001C49.5218 38.5295 49.4907 38.6882 49.4907 38.8762C49.4907 39.0643 49.5218 39.223 49.584 39.3523C49.6469 39.4817 49.7314 39.5796 49.8374 39.646C49.9442 39.7125 50.0633 39.7457 50.1947 39.7457C50.2668 39.7457 50.3361 39.7358 50.4026 39.716C50.469 39.6962 50.5295 39.6669 50.5839 39.628C50.639 39.5884 50.6857 39.54 50.7239 39.4827C50.7627 39.4248 50.79 39.3583 50.8055 39.2834H51.0685C51.0487 39.3944 51.0126 39.4937 50.9603 39.5813C50.908 39.669 50.843 39.7436 50.7652 39.8051C50.6875 39.8659 50.6002 39.9122 50.5033 39.944C50.4072 39.9758 50.3043 39.9917 50.1947 39.9917C50.0095 39.9917 49.8448 39.9465 49.7006 39.856C49.5564 39.7655 49.443 39.6368 49.3603 39.47C49.2776 39.3032 49.2362 39.1053 49.2362 38.8762C49.2362 38.6472 49.2776 38.4493 49.3603 38.2824C49.443 38.1156 49.5564 37.9869 49.7006 37.8965C49.8448 37.806 50.0095 37.7607 50.1947 37.7607C50.3043 37.7607 50.4072 37.7766 50.5033 37.8085C50.6002 37.8403 50.6875 37.8869 50.7652 37.9484C50.843 38.0092 50.908 38.0834 50.9603 38.1711C51.0126 38.258 51.0487 38.3574 51.0685 38.4691Z" fill="white"/>
<path d="M51.4934 39.962V37.7904H52.804V38.0237H51.7564V38.7575H52.7361V38.9907H51.7564V39.7287H52.8209V39.962H51.4934Z" fill="white"/>
<path d="M53.4264 39.979C53.3741 39.979 53.3292 39.9602 53.2917 39.9228C53.2543 39.8853 53.2355 39.8404 53.2355 39.7881C53.2355 39.7358 53.2543 39.6909 53.2917 39.6535C53.3292 39.616 53.3741 39.5973 53.4264 39.5973C53.4787 39.5973 53.5236 39.616 53.5611 39.6535C53.5985 39.6909 53.6173 39.7358 53.6173 39.7881C53.6173 39.8228 53.6084 39.8546 53.5908 39.8835C53.5738 39.9125 53.5508 39.9359 53.5218 39.9535C53.4936 39.9705 53.4617 39.979 53.4264 39.979Z" fill="white"/>
<path d="M54.7534 37.7904H55.0546L55.6568 38.8041H55.6823L56.2846 37.7904H56.5857L55.801 39.0671V39.962H55.5381V39.0671L54.7534 37.7904Z" fill="white"/>
<path d="M58.656 38.8762C58.656 39.1053 58.6146 39.3032 58.5319 39.47C58.4492 39.6368 58.3358 39.7655 58.1916 39.856C58.0474 39.9465 57.8827 39.9917 57.6975 39.9917C57.5122 39.9917 57.3475 39.9465 57.2033 39.856C57.0591 39.7655 56.9457 39.6368 56.863 39.47C56.7803 39.3032 56.7389 39.1053 56.7389 38.8762C56.7389 38.6472 56.7803 38.4493 56.863 38.2824C56.9457 38.1156 57.0591 37.9869 57.2033 37.8965C57.3475 37.806 57.5122 37.7607 57.6975 37.7607C57.8827 37.7607 58.0474 37.806 58.1916 37.8965C58.3358 37.9869 58.4492 38.1156 58.5319 38.2824C58.6146 38.4493 58.656 38.6472 58.656 38.8762ZM58.4015 38.8762C58.4015 38.6882 58.3701 38.5295 58.3071 38.4001C58.2449 38.2708 58.1605 38.1729 58.0537 38.1064C57.9477 38.04 57.8289 38.0067 57.6975 38.0067C57.566 38.0067 57.4469 38.04 57.3401 38.1064C57.2341 38.1729 57.1496 38.2708 57.0867 38.4001C57.0245 38.5295 56.9934 38.6882 56.9934 38.8762C56.9934 39.0643 57.0245 39.223 57.0867 39.3523C57.1496 39.4817 57.2341 39.5796 57.3401 39.646C57.4469 39.7125 57.566 39.7457 57.6975 39.7457C57.8289 39.7457 57.9477 39.7125 58.0537 39.646C58.1605 39.5796 58.2449 39.4817 58.3071 39.3523C58.3701 39.223 58.4015 39.0643 58.4015 38.8762Z" fill="white"/>
<path d="M60.5233 37.7904H60.7862V39.2283C60.7862 39.3767 60.7512 39.5092 60.6813 39.6259C60.612 39.7418 60.5141 39.8334 60.3875 39.9005C60.261 39.967 60.1126 40.0002 59.9422 40.0002C59.7718 40.0002 59.6234 39.967 59.4969 39.9005C59.3703 39.8334 59.2721 39.7418 59.2021 39.6259C59.1328 39.5092 59.0982 39.3767 59.0982 39.2283V37.7904H59.3611V39.207C59.3611 39.3131 59.3845 39.4075 59.4311 39.4902C59.4778 39.5722 59.5442 39.6368 59.6305 39.6842C59.7174 39.7309 59.8213 39.7542 59.9422 39.7542C60.0631 39.7542 60.167 39.7309 60.2539 39.6842C60.3409 39.6368 60.4073 39.5722 60.4533 39.4902C60.4999 39.4075 60.5233 39.3131 60.5233 39.207V37.7904Z" fill="white"/>
<path d="M61.3114 39.962V37.7904H62.0451C62.2148 37.7904 62.354 37.8194 62.4629 37.8774C62.5718 37.9346 62.6523 38.0135 62.7046 38.1138C62.757 38.2142 62.7831 38.3284 62.7831 38.4563C62.7831 38.5843 62.757 38.6977 62.7046 38.7967C62.6523 38.8957 62.5721 38.9734 62.4639 39.03C62.3558 39.0858 62.2176 39.1137 62.0494 39.1137H61.4556V38.8762H62.0409C62.1568 38.8762 62.2501 38.8593 62.3208 38.8253C62.3922 38.7914 62.4438 38.7433 62.4756 38.6811C62.5081 38.6182 62.5244 38.5433 62.5244 38.4563C62.5244 38.3694 62.5081 38.2934 62.4756 38.2284C62.4431 38.1633 62.3911 38.1131 62.3197 38.0778C62.2483 38.0417 62.154 38.0237 62.0366 38.0237H61.5743V39.962H61.3114ZM62.3335 38.9865L62.8679 39.962H62.5626L62.0366 38.9865H62.3335Z" fill="white"/>
<path d="M64.4555 39.962L63.8617 37.7904H64.129L64.5828 39.5591H64.604L65.0663 37.7904H65.3632L65.8255 39.5591H65.8467L66.3005 37.7904H66.5677L65.9739 39.962H65.7025L65.2232 38.2315H65.2063L64.727 39.962H64.4555Z" fill="white"/>
<path d="M67.1583 37.7904V39.962H66.8954V37.7904H67.1583Z" fill="white"/>
<path d="M67.6856 39.962V37.7904H68.4194C68.589 37.7904 68.7283 37.8194 68.8371 37.8774C68.946 37.9346 69.0266 38.0135 69.0789 38.1138C69.1312 38.2142 69.1574 38.3284 69.1574 38.4563C69.1574 38.5843 69.1312 38.6977 69.0789 38.7967C69.0266 38.8957 68.9463 38.9734 68.8382 39.03C68.73 39.0858 68.5918 39.1137 68.4236 39.1137H67.8298V38.8762H68.4151C68.531 38.8762 68.6244 38.8593 68.695 38.8253C68.7664 38.7914 68.818 38.7433 68.8499 38.6811C68.8824 38.6182 68.8986 38.5433 68.8986 38.4563C68.8986 38.3694 68.8824 38.2934 68.8499 38.2284C68.8173 38.1633 68.7654 38.1131 68.694 38.0778C68.6226 38.0417 68.5282 38.0237 68.4109 38.0237H67.9486V39.962H67.6856ZM68.7078 38.9865L69.2422 39.962H68.9368L68.4109 38.9865H68.7078Z" fill="white"/>
<path d="M69.5955 39.962V37.7904H70.9061V38.0237H69.8585V38.7575H70.8383V38.9907H69.8585V39.7287H70.9231V39.962H69.5955Z" fill="white"/>
<path d="M85.7617 13.7642V13.5068H87.5584V13.7642H86.8051V15.9025H86.515V13.7642H85.7617Z" fill="white"/>
<path d="M88.0061 13.5068H88.3524L89.1665 15.4954H89.1946L90.0087 13.5068H90.355V15.9025H90.0836V14.0823H90.0602L89.3116 15.9025H89.0495L88.3009 14.0823H88.2775V15.9025H88.0061V13.5068Z" fill="white"/>
</svg>
